<?xml version="1.0" encoding="UTF-8"?>
<svg xmlns="http://www.w3.org/2000/svg" xmlns:xlink="http://www.w3.org/1999/xlink" width="250pt" height="250pt" viewBox="0 0 250 250" version="1.1">
<g id="surface1">
<path style=" stroke:none;fill-rule:nonzero;fill:rgb(0%,0%,0%);fill-opacity:1;" d="M 126.125 8.359375 C 125.414062 8.492188 123.625 8.589844 121.988281 8.605469 C 118.046875 8.625 117.054688 8.773438 115.894531 9.484375 C 115.070312 9.996094 112.074219 11.089844 111.527344 11.089844 C 111.246094 11.089844 109.492188 12.164062 108.613281 12.878906 C 108.214844 13.191406 107.4375 13.671875 106.875 13.9375 C 106.3125 14.21875 105.386719 14.847656 104.824219 15.34375 C 104.128906 15.957031 103.484375 16.351562 102.804688 16.570312 C 101.761719 16.933594 101.414062 17.214844 99.0625 19.714844 C 98.433594 20.390625 97.574219 21.121094 97.160156 21.351562 C 96.582031 21.667969 96.316406 21.980469 95.96875 22.675781 C 95.71875 23.171875 95.191406 23.984375 94.792969 24.480469 C 94.097656 25.292969 94.046875 25.457031 93.933594 26.597656 C 93.816406 27.921875 93.882812 28.121094 94.792969 29.082031 C 95.835938 30.175781 96.976562 30.652344 98.019531 30.421875 C 98.417969 30.339844 99.113281 30.242188 99.59375 30.222656 C 100.617188 30.15625 101.296875 29.777344 101.296875 29.246094 C 101.296875 28.683594 100.835938 28.136719 100.371094 28.136719 C 100.007812 28.136719 99.972656 28.089844 99.972656 27.246094 C 99.972656 26.136719 100.171875 25.902344 101.378906 25.65625 C 102.375 25.457031 102.855469 25.011719 103.035156 24.148438 C 103.101562 23.851562 103.433594 23.421875 103.878906 23.058594 C 104.277344 22.726562 104.742188 22.144531 104.921875 21.78125 C 105.335938 20.886719 105.566406 20.707031 108.628906 18.671875 C 110.996094 17.082031 111.3125 16.917969 112.222656 16.816406 C 112.933594 16.734375 113.429688 16.550781 113.992188 16.171875 C 114.441406 15.875 115.53125 15.277344 116.441406 14.832031 C 117.351562 14.398438 118.578125 13.804688 119.15625 13.507812 C 120.085938 13.058594 120.480469 12.976562 122.136719 12.859375 C 126.226562 12.597656 127.699219 12.5625 129.320312 12.746094 C 130.246094 12.859375 131.457031 12.992188 132 13.058594 C 132.546875 13.125 133.175781 13.292969 133.410156 13.441406 C 133.640625 13.589844 134.46875 13.886719 135.261719 14.070312 C 136.273438 14.332031 137.035156 14.648438 137.828125 15.160156 C 138.441406 15.558594 139.433594 16.136719 140.027344 16.453125 C 140.625 16.785156 141.667969 17.578125 142.347656 18.222656 C 143.023438 18.871094 143.96875 19.582031 144.414062 19.796875 C 145.0625 20.109375 145.492188 20.507812 146.21875 21.433594 C 146.734375 22.128906 147.34375 22.808594 147.578125 22.941406 C 147.792969 23.089844 148.238281 23.636719 148.554688 24.164062 C 148.867188 24.695312 149.25 25.226562 149.398438 25.339844 C 149.546875 25.472656 149.8125 25.886719 149.976562 26.285156 C 150.160156 26.683594 150.820312 27.707031 151.464844 28.570312 C 152.757812 30.304688 152.941406 30.738281 152.941406 32.242188 C 152.941406 32.824219 153.054688 33.816406 153.203125 34.460938 C 153.585938 36.132812 153.46875 38.730469 152.972656 39.691406 C 152.757812 40.089844 152.527344 40.964844 152.425781 41.742188 C 152.34375 42.472656 152.113281 43.367188 151.929688 43.714844 C 151.765625 44.0625 151.5 44.890625 151.382812 45.550781 C 151.25 46.214844 151.019531 47.089844 150.871094 47.503906 C 150.722656 47.917969 150.457031 48.992188 150.273438 49.902344 C 149.878906 51.890625 149.363281 53.03125 148.46875 53.859375 C 148.105469 54.191406 147.644531 54.785156 147.460938 55.167969 C 146.832031 56.390625 146.152344 57.105469 144.863281 57.847656 C 144.167969 58.261719 143.488281 58.59375 143.355469 58.59375 C 143.238281 58.59375 142.675781 58.824219 142.132812 59.105469 C 140.875 59.734375 140.558594 59.6875 138.9375 58.578125 C 137.859375 57.832031 137.664062 57.601562 137.199219 56.625 C 136.902344 56.027344 136.46875 54.96875 136.222656 54.289062 C 135.644531 52.703125 134.484375 50.121094 133.953125 49.191406 C 133.605469 48.613281 133.507812 48.148438 133.410156 46.710938 C 133.308594 45.550781 133.160156 44.691406 132.945312 44.195312 C 132.515625 43.25 132.035156 41.046875 131.6875 38.484375 C 131.222656 35.207031 131.109375 34.777344 130.527344 34.148438 C 130.066406 33.632812 129.898438 33.566406 128.9375 33.484375 C 126.390625 33.285156 125.546875 34.710938 126.589844 37.441406 C 126.769531 37.921875 127.050781 39.210938 127.203125 40.304688 C 127.632812 43.449219 128.113281 45.800781 128.542969 46.859375 C 128.839844 47.570312 128.9375 48.148438 128.9375 49.027344 C 128.957031 50.617188 129.1875 51.574219 129.75 52.386719 C 130.328125 53.214844 131.917969 56.609375 131.917969 57.019531 C 131.917969 57.203125 132.28125 58.097656 132.730469 59.023438 C 133.640625 60.894531 133.886719 61.144531 136.933594 63.378906 C 138.921875 64.851562 139.367188 65 141.320312 64.832031 C 142.28125 64.769531 142.742188 64.585938 144.828125 63.507812 C 147.875 61.9375 149.28125 61.144531 149.777344 60.695312 C 149.992188 60.496094 150.605469 59.652344 151.167969 58.84375 C 151.714844 58.015625 152.558594 56.9375 153.039062 56.425781 C 153.949219 55.464844 153.980469 55.382812 154.59375 52.636719 C 154.792969 51.773438 155.089844 50.617188 155.257812 50.070312 C 155.4375 49.523438 155.652344 48.578125 155.738281 47.984375 C 155.820312 47.386719 156.050781 46.578125 156.234375 46.214844 C 156.449219 45.800781 156.648438 44.972656 156.730469 44.160156 C 156.796875 43.398438 156.996094 42.523438 157.160156 42.207031 C 157.671875 41.230469 157.65625 37.273438 157.109375 29.378906 L 156.996094 27.722656 L 155.835938 26.003906 C 155.191406 25.058594 154.527344 24.066406 154.363281 23.769531 C 154.179688 23.488281 153.765625 22.925781 153.4375 22.511719 C 153.105469 22.097656 152.660156 21.433594 152.441406 21.019531 C 152.246094 20.605469 151.617188 19.828125 151.070312 19.28125 C 150.507812 18.71875 149.644531 17.808594 149.164062 17.246094 C 148.6875 16.683594 147.941406 15.988281 147.511719 15.691406 C 147.082031 15.410156 146.136719 14.597656 145.410156 13.921875 C 144.5 13.042969 143.851562 12.578125 143.339844 12.414062 C 142.925781 12.28125 142.066406 11.816406 141.402344 11.386719 C 139.699219 10.277344 139.449219 10.164062 137.5625 9.683594 C 136.636719 9.449219 135.527344 9.121094 135.097656 8.953125 C 133.390625 8.277344 128.375 7.945312 126.125 8.359375 Z M 126.125 8.359375 "/>
<path style=" stroke:none;fill-rule:nonzero;fill:rgb(0%,0%,0%);fill-opacity:1;" d="M 67.945312 27.09375 C 67.546875 27.144531 67.101562 27.34375 66.753906 27.660156 L 66.191406 28.136719 L 60.894531 28.136719 L 59.917969 28.800781 C 59.105469 29.363281 58.910156 29.578125 58.742188 30.175781 C 58.644531 30.554688 58.59375 31.316406 58.644531 31.863281 C 58.726562 32.871094 59.570312 36.066406 59.933594 36.777344 C 60.035156 36.992188 60.644531 37.6875 61.308594 38.316406 C 62.730469 39.742188 63.691406 41.097656 64.769531 43.234375 C 65.414062 44.523438 65.746094 44.972656 66.355469 45.417969 C 68.027344 46.675781 69.136719 47.535156 69.765625 48.066406 C 70.527344 48.695312 72.613281 49.789062 74.269531 50.402344 C 74.863281 50.632812 75.726562 51.046875 76.15625 51.3125 C 76.585938 51.574219 77.628906 52.007812 78.488281 52.269531 C 79.332031 52.535156 80.328125 52.898438 80.691406 53.082031 C 81.054688 53.28125 81.683594 53.480469 82.097656 53.546875 C 82.511719 53.613281 83.40625 53.792969 84.082031 53.960938 C 85.210938 54.242188 86.382812 54.273438 95.953125 54.324219 L 106.578125 54.371094 L 106.957031 53.992188 C 107.273438 53.679688 107.324219 53.445312 107.324219 52.402344 C 107.324219 50.683594 107.191406 50.566406 105.136719 50.417969 C 104.261719 50.351562 100.105469 50.269531 95.917969 50.21875 L 88.304688 50.136719 L 86.316406 49.640625 C 85.226562 49.375 84.214844 49.160156 84.066406 49.160156 C 83.933594 49.160156 83.539062 49.011719 83.191406 48.828125 C 82.824219 48.664062 81.832031 48.265625 80.957031 47.984375 C 80.078125 47.6875 79.101562 47.289062 78.785156 47.089844 C 78.457031 46.875 77.480469 46.429688 76.636719 46.0625 C 74.683594 45.253906 71.539062 43.199219 70.429688 42.023438 C 69.453125 40.984375 68.195312 38.980469 68.195312 38.449219 C 68.195312 38.21875 68.441406 37.886719 68.855469 37.554688 C 69.75 36.828125 69.996094 36.414062 70.261719 35.140625 C 70.527344 33.863281 70.742188 33.601562 72.117188 32.839844 L 73.144531 32.257812 L 77.164062 32.359375 C 87.609375 32.589844 92.359375 32.625 93.003906 32.441406 C 93.519531 32.308594 93.683594 32.160156 93.832031 31.746094 C 94.082031 31.066406 94.066406 30.769531 93.765625 30.191406 C 93.152344 28.949219 91.796875 28.304688 89.828125 28.304688 C 88.75 28.304688 88.355469 28.238281 87.921875 27.972656 C 87.292969 27.574219 86.765625 27.558594 82.296875 27.722656 C 80.160156 27.808594 79.050781 27.789062 78.488281 27.640625 C 76.851562 27.226562 69.933594 26.863281 67.945312 27.09375 Z M 67.945312 27.09375 "/>
<path style=" stroke:none;fill-rule:nonzero;fill:rgb(0%,0%,0%);fill-opacity:1;" d="M 151.234375 68.359375 C 150.589844 68.871094 150.40625 69.667969 150.488281 71.667969 C 150.574219 73.804688 150.605469 73.871094 153.351562 77.5625 C 154.429688 79.019531 155.804688 80.855469 156.414062 81.683594 C 158.085938 83.953125 159.113281 85.375 159.925781 86.566406 C 160.304688 87.164062 161.199219 88.355469 161.894531 89.214844 C 162.589844 90.074219 163.597656 91.449219 164.128906 92.277344 C 164.660156 93.089844 166.03125 94.777344 167.175781 96 C 169.90625 98.949219 170.019531 99.113281 171.808594 102.289062 C 173.449219 105.253906 173.828125 105.785156 176.359375 108.910156 C 177.289062 110.054688 178.695312 111.875 179.503906 112.964844 C 180.316406 114.058594 181.425781 115.515625 181.988281 116.195312 C 182.550781 116.871094 183.261719 117.800781 183.5625 118.261719 C 183.875 118.710938 185.546875 120.878906 187.285156 123.0625 C 189.039062 125.25 190.726562 127.449219 191.042969 127.945312 C 191.355469 128.441406 192.25 129.601562 193.011719 130.511719 C 195.59375 133.574219 196.621094 135.296875 198.109375 139.003906 C 198.9375 141.089844 199.898438 142.992188 200.757812 144.332031 C 201.121094 144.894531 201.570312 145.757812 201.75 146.253906 C 201.949219 146.734375 202.378906 147.726562 202.746094 148.421875 C 203.605469 150.140625 204.914062 153.039062 206.023438 155.671875 C 207.628906 159.476562 207.84375 159.972656 208.222656 160.71875 C 208.820312 161.878906 209.199219 163.117188 209.730469 165.601562 C 210.589844 169.605469 210.671875 170.1875 210.871094 172.554688 C 210.96875 173.828125 211.121094 175.316406 211.203125 175.863281 C 211.617188 178.265625 211.597656 180.101562 211.136719 183.34375 C 210.257812 189.617188 210.09375 190.132812 207.957031 193.328125 C 204.582031 198.375 205.144531 197.777344 199.863281 201.851562 C 198.804688 202.660156 197.296875 203.871094 196.539062 204.53125 C 195.757812 205.175781 194.816406 205.855469 194.433594 206.039062 C 194.054688 206.21875 193.410156 206.667969 192.996094 207.015625 C 192.582031 207.378906 191.769531 207.925781 191.175781 208.238281 C 190.578125 208.554688 189.703125 209.183594 189.238281 209.644531 L 188.359375 210.472656 L 188.359375 211.648438 C 188.359375 212.957031 188.640625 213.488281 189.503906 213.851562 C 190.164062 214.117188 190.660156 213.984375 191.488281 213.289062 C 191.851562 212.972656 192.761719 212.378906 193.507812 211.945312 C 195.992188 210.523438 202.828125 205.871094 204.613281 204.382812 C 205.589844 203.589844 207.015625 202.496094 207.757812 201.949219 C 208.519531 201.421875 209.496094 200.675781 209.960938 200.292969 C 211.019531 199.417969 211.351562 199.335938 213.882812 199.234375 C 215.835938 199.152344 216.101562 199.101562 217.277344 198.574219 C 217.988281 198.257812 218.75 197.945312 218.980469 197.878906 C 219.214844 197.8125 220.105469 197.449219 220.96875 197.050781 C 222.042969 196.570312 222.871094 196.320312 223.601562 196.238281 C 224.34375 196.171875 225.054688 195.941406 226.015625 195.476562 C 226.761719 195.113281 227.421875 194.816406 227.472656 194.816406 C 227.703125 194.816406 230.847656 193.261719 231.214844 192.960938 C 231.445312 192.796875 231.84375 192.300781 232.125 191.871094 C 232.472656 191.339844 232.886719 190.976562 233.398438 190.726562 C 233.8125 190.546875 234.34375 190.148438 234.589844 189.867188 C 234.972656 189.402344 236.328125 188.277344 237.421875 187.5 C 237.949219 187.121094 240.980469 182.566406 241.476562 181.410156 C 241.691406 180.914062 242.003906 180.25 242.203125 179.9375 C 242.386719 179.636719 242.601562 179.058594 242.667969 178.644531 C 242.75 178.246094 242.964844 177.683594 243.164062 177.402344 C 243.460938 176.988281 243.542969 176.542969 243.675781 174.722656 C 243.992188 170.085938 244.023438 167.175781 243.726562 165.601562 C 243.578125 164.773438 243.394531 163.582031 243.296875 162.953125 C 242.71875 158.667969 242.023438 156.132812 240.699219 153.519531 C 240.515625 153.15625 240.316406 152.394531 240.25 151.8125 C 240.117188 150.554688 239.820312 149.679688 239.160156 148.570312 C 238.859375 148.105469 238.398438 147.179688 238.117188 146.484375 C 237.636719 145.34375 237.335938 144.996094 234.871094 142.429688 C 233.367188 140.875 231.5625 139.035156 230.867188 138.324219 L 229.574219 137.050781 L 227.9375 137.050781 C 225.867188 137.050781 225.71875 137.164062 225.703125 138.921875 C 225.683594 140.292969 225.949219 140.808594 227.058594 141.585938 C 227.421875 141.832031 227.9375 142.347656 228.199219 142.726562 C 228.484375 143.109375 229.722656 144.464844 230.964844 145.738281 C 233.066406 147.925781 233.28125 148.1875 234.34375 150.207031 C 235.730469 152.824219 235.699219 152.757812 235.863281 154.113281 C 235.949219 154.828125 236.230469 155.71875 236.691406 156.761719 C 237.601562 158.78125 238.25 160.902344 238.578125 162.953125 C 238.726562 163.863281 238.992188 165.269531 239.140625 166.097656 C 239.355469 167.242188 239.40625 168.300781 239.375 170.617188 C 239.339844 173.429688 239.308594 173.710938 238.941406 174.425781 C 238.726562 174.855469 238.496094 175.53125 238.429688 175.929688 C 238.28125 176.789062 237.289062 178.976562 236.742188 179.65625 C 236.527344 179.917969 236.164062 180.5 235.929688 180.945312 C 235.402344 181.972656 234.226562 183.445312 233.28125 184.207031 C 232.902344 184.539062 232.171875 185.148438 231.675781 185.597656 C 231.179688 186.027344 230.238281 186.640625 229.589844 186.953125 C 228.878906 187.300781 227.953125 187.964844 227.207031 188.640625 C 226.230469 189.535156 225.769531 189.851562 224.839844 190.164062 C 224.210938 190.378906 223.417969 190.695312 223.070312 190.875 C 222.722656 191.042969 221.8125 191.375 221.050781 191.589844 C 220.289062 191.820312 218.933594 192.316406 218.039062 192.714844 C 216.035156 193.625 214.746094 194.054688 214.429688 193.921875 C 214.082031 193.789062 214.117188 193.160156 214.527344 192.132812 C 214.746094 191.589844 214.925781 190.59375 215.027344 189.519531 C 215.09375 188.558594 215.308594 186.621094 215.503906 185.214844 C 216.167969 180.066406 216.316406 176.941406 216.070312 173.84375 C 215.9375 172.320312 215.6875 170.203125 215.488281 169.160156 C 214.992188 166.28125 213.898438 162.308594 213.15625 160.636719 C 212.792969 159.808594 212.261719 158.46875 211.964844 157.65625 C 211.664062 156.828125 211.1875 155.703125 210.886719 155.125 C 210.589844 154.546875 209.449219 151.78125 208.324219 149 C 207.195312 146.203125 205.871094 142.976562 205.359375 141.816406 C 204.847656 140.675781 204.117188 138.855469 203.753906 137.777344 C 202.992188 135.578125 201.203125 132.316406 199.46875 129.964844 C 198.886719 129.171875 198.144531 128.113281 197.828125 127.613281 C 196.125 124.96875 193.558594 121.492188 191.851562 119.519531 C 190.792969 118.3125 189.402344 116.640625 188.773438 115.796875 C 188.128906 114.96875 187.070312 113.628906 186.40625 112.835938 C 185.761719 112.039062 184.984375 111.03125 184.6875 110.601562 C 184.40625 110.167969 183.660156 109.191406 183.0625 108.414062 C 181.9375 106.992188 177.816406 100.75 175.699219 97.226562 C 173.511719 93.632812 172.554688 92.277344 170.980469 90.621094 C 170.105469 89.710938 168.8125 88.238281 168.117188 87.34375 C 167.40625 86.46875 166.394531 85.242188 165.851562 84.664062 C 165.320312 84.066406 164.476562 83.007812 163.980469 82.296875 C 163.484375 81.601562 162.441406 80.261719 161.664062 79.332031 C 159.230469 76.4375 155.554688 71.191406 154.859375 69.632812 C 154.3125 68.390625 153.800781 68.027344 152.609375 68.027344 C 151.914062 68.027344 151.550781 68.109375 151.234375 68.359375 Z M 151.234375 68.359375 "/>
<path style=" stroke:none;fill-rule:nonzero;fill:rgb(0%,0%,0%);fill-opacity:1;" d="M 95.304688 84.695312 C 94.910156 85.144531 94.230469 86.300781 93.402344 87.941406 C 92.988281 88.769531 91.367188 90.472656 88.851562 92.742188 C 86.964844 94.429688 86.714844 94.542969 85.871094 94.246094 C 85.507812 94.113281 85.011719 94.015625 84.761719 94.015625 C 84.515625 94.015625 83.886719 93.800781 83.339844 93.519531 C 82.792969 93.253906 82.261719 93.023438 82.179688 93.023438 C 82.082031 93.023438 81.75 92.839844 81.433594 92.640625 C 80.128906 91.746094 79.515625 91.664062 74.699219 91.746094 C 72.265625 91.78125 69.882812 91.894531 69.417969 91.996094 C 68.589844 92.160156 66.984375 93.105469 66.042969 93.949219 C 65.378906 94.542969 63.445312 95.238281 62.402344 95.238281 C 61.109375 95.238281 59.453125 94.875 58.910156 94.496094 C 58.660156 94.328125 58.214844 94.128906 57.898438 94.082031 C 57.003906 93.898438 54.9375 92.855469 54.042969 92.113281 C 53.59375 91.730469 52.882812 91.199219 52.46875 90.917969 C 52.054688 90.636719 51.425781 90.09375 51.078125 89.695312 C 50.367188 88.867188 48.664062 86.253906 48.664062 85.953125 C 48.664062 85.472656 47.933594 85.242188 46.511719 85.242188 C 45.238281 85.242188 45.039062 85.277344 44.722656 85.621094 C 44.523438 85.839844 44.324219 86.253906 44.261719 86.566406 C 44.210938 86.882812 43.976562 87.574219 43.746094 88.105469 C 43.515625 88.667969 43.285156 89.59375 43.21875 90.289062 C 43.132812 91.199219 43 91.664062 42.71875 92.046875 C 42.339844 92.558594 42.339844 92.574219 42.457031 95.984375 C 42.621094 101.28125 42.570312 102.671875 42.125 104.113281 C 41.910156 104.789062 41.675781 105.683594 41.613281 106.097656 C 41.5625 106.496094 41.347656 107.171875 41.148438 107.585938 C 40.832031 108.265625 40.800781 108.582031 40.832031 111.511719 C 40.851562 114.457031 40.882812 114.738281 41.199219 115.183594 C 41.675781 115.847656 42.71875 118.148438 43.730469 120.746094 C 44.195312 121.921875 44.757812 123.144531 44.988281 123.445312 C 45.203125 123.742188 45.566406 124.453125 45.78125 125.015625 C 46.015625 125.597656 46.460938 126.324219 46.84375 126.703125 C 47.191406 127.070312 47.570312 127.582031 47.667969 127.863281 C 48 128.742188 49.191406 130.363281 49.804688 130.761719 C 50.136719 130.976562 50.632812 131.355469 50.898438 131.605469 C 51.179688 131.835938 52.039062 132.449219 52.816406 132.960938 C 53.59375 133.472656 54.339844 134.003906 54.457031 134.152344 C 54.589844 134.300781 55.234375 134.796875 55.894531 135.246094 C 57.800781 136.519531 59.15625 136.652344 60.214844 135.675781 C 60.863281 135.0625 61.125 134.1875 60.945312 133.308594 C 60.84375 132.796875 60.644531 132.546875 60 132.085938 C 59.554688 131.769531 58.777344 131.125 58.277344 130.660156 C 57.765625 130.179688 56.757812 129.402344 56.011719 128.921875 C 53.347656 127.152344 52.238281 126.058594 51.824219 124.800781 C 51.726562 124.488281 51.277344 123.824219 50.8125 123.34375 C 50.285156 122.765625 49.953125 122.269531 49.886719 121.871094 C 49.820312 121.539062 49.523438 120.996094 49.207031 120.648438 C 48.828125 120.234375 48.449219 119.488281 48.066406 118.394531 C 47.753906 117.503906 47.253906 116.242188 46.941406 115.597656 C 46.082031 113.777344 45.914062 112.917969 46.148438 111.542969 C 46.261719 110.914062 46.34375 109.789062 46.34375 109.027344 C 46.34375 108.234375 46.460938 107.371094 46.609375 106.925781 C 46.824219 106.3125 46.859375 105.304688 46.84375 100.71875 C 46.808594 95.503906 46.808594 95.222656 47.140625 94.511719 C 47.585938 93.550781 47.636719 93.484375 48.050781 93.71875 C 48.511719 93.964844 50.417969 95.421875 51.144531 96.101562 C 52.054688 96.929688 54.140625 98.101562 54.953125 98.234375 C 55.367188 98.300781 56.027344 98.535156 56.441406 98.730469 C 56.855469 98.929688 57.519531 99.164062 57.933594 99.230469 C 58.34375 99.292969 58.972656 99.511719 59.339844 99.691406 C 60.132812 100.105469 61.191406 100.269531 63.726562 100.402344 C 65.628906 100.503906 65.644531 100.503906 66.671875 99.988281 C 67.316406 99.660156 67.828125 99.261719 68.0625 98.898438 C 68.558594 98.167969 71.488281 96.730469 72.828125 96.5625 C 73.324219 96.496094 74.035156 96.28125 74.417969 96.066406 C 74.78125 95.851562 75.328125 95.671875 75.609375 95.671875 C 76.269531 95.671875 78.058594 96.28125 78.6875 96.710938 C 79.003906 96.929688 79.566406 97.078125 80.308594 97.160156 C 81.371094 97.242188 81.519531 97.308594 81.949219 97.820312 C 82.214844 98.136719 82.429688 98.449219 82.429688 98.515625 C 82.429688 98.566406 82.710938 98.796875 83.058594 98.996094 C 83.386719 99.210938 83.96875 99.625 84.316406 99.925781 C 84.929688 100.4375 85.042969 100.46875 86.203125 100.46875 L 87.445312 100.46875 L 88.519531 99.511719 C 89.097656 98.996094 90.042969 98.21875 90.605469 97.804688 C 91.152344 97.375 91.960938 96.664062 92.394531 96.199219 C 92.824219 95.734375 93.535156 95.105469 93.980469 94.808594 C 94.792969 94.261719 95.703125 93.320312 96.214844 92.492188 C 96.363281 92.242188 96.648438 91.960938 96.828125 91.863281 C 97.125 91.714844 97.242188 91.746094 97.589844 92.160156 C 98.152344 92.789062 99.445312 96.066406 99.726562 97.574219 C 100.039062 99.164062 100.535156 100.46875 101.148438 101.230469 C 101.414062 101.5625 101.679688 102.042969 101.726562 102.273438 C 101.777344 102.507812 102.027344 103.265625 102.289062 103.960938 L 102.789062 105.203125 L 102.789062 110.351562 C 102.789062 115.019531 102.753906 115.566406 102.457031 116.425781 C 101.878906 118.132812 100.074219 120.234375 98.203125 121.390625 C 97.492188 121.839844 96.695312 122.402344 96.414062 122.648438 C 96.148438 122.914062 95.585938 123.277344 95.171875 123.476562 C 94.015625 124.039062 93.550781 124.585938 93.1875 125.761719 C 92.675781 127.433594 92.742188 131.023438 93.351562 134.121094 C 93.433594 134.550781 94.195312 136.421875 95.007812 138.257812 C 95.835938 140.09375 96.8125 142.429688 97.160156 143.421875 C 97.953125 145.671875 100.617188 150.855469 101.496094 151.863281 C 101.859375 152.277344 102.421875 153.089844 102.753906 153.667969 C 103.597656 155.125 105.285156 157.308594 106.363281 158.285156 C 106.859375 158.734375 107.570312 159.527344 107.933594 160.058594 C 108.300781 160.585938 108.894531 161.25 109.242188 161.53125 C 109.605469 161.8125 110.234375 162.554688 110.667969 163.167969 C 111.097656 163.78125 112.253906 165.089844 113.214844 166.097656 C 114.191406 167.089844 115.101562 168.132812 115.25 168.414062 C 115.382812 168.679688 116.691406 170.070312 118.132812 171.496094 C 121.226562 174.539062 122.335938 175.78125 123.363281 177.355469 C 123.792969 177.984375 124.304688 178.726562 124.535156 179.007812 C 125.050781 179.636719 126.871094 183.164062 127.019531 183.808594 C 127.085938 184.074219 127.53125 185.117188 128.027344 186.125 C 128.589844 187.269531 129.089844 188.59375 129.371094 189.683594 C 129.765625 191.273438 129.785156 191.503906 129.601562 192.5 C 129.503906 193.078125 129.023438 194.535156 128.542969 195.726562 C 128.0625 196.902344 127.464844 198.6875 127.234375 199.699219 C 126.769531 201.617188 126.09375 203.375 124.882812 205.773438 C 124.371094 206.78125 124.105469 207.5625 124.007812 208.355469 C 123.792969 209.894531 123.460938 210.472656 120.480469 214.546875 C 119.902344 215.355469 119.125 216.464844 118.777344 217.027344 C 117.816406 218.519531 116.589844 219.941406 115.730469 220.539062 C 115.316406 220.820312 114.6875 221.300781 114.324219 221.597656 C 113.941406 221.910156 113.3125 222.324219 112.882812 222.539062 C 112.46875 222.753906 111.691406 223.253906 111.144531 223.664062 C 110.417969 224.195312 109.789062 224.511719 108.828125 224.757812 C 107.273438 225.1875 105.914062 225.703125 103.765625 226.695312 C 102.902344 227.09375 101.746094 227.507812 101.199219 227.589844 C 100.667969 227.6875 99.660156 227.953125 98.980469 228.167969 C 98.152344 228.433594 97.160156 228.582031 95.984375 228.648438 C 94.660156 228.699219 93.914062 228.832031 93.003906 229.160156 C 90.242188 230.152344 89.097656 230.417969 87.230469 230.566406 C 85.9375 230.667969 84.945312 230.847656 84.132812 231.148438 C 83.4375 231.378906 82.5625 231.5625 82.0625 231.5625 C 81.585938 231.5625 80.890625 231.644531 80.523438 231.726562 C 80.160156 231.824219 78.96875 231.976562 77.859375 232.058594 C 76.535156 232.15625 75.558594 232.324219 74.996094 232.554688 C 74.515625 232.738281 73.558594 232.96875 72.878906 233.066406 C 72.117188 233.167969 71.105469 233.464844 70.28125 233.84375 C 69.203125 234.324219 68.691406 234.457031 67.613281 234.507812 C 66.636719 234.558594 66.242188 234.65625 66.109375 234.855469 C 65.925781 235.085938 65.148438 235.136719 59.140625 235.203125 C 51.988281 235.300781 50.597656 235.203125 48.398438 234.558594 C 47.769531 234.359375 46.625 234.144531 45.847656 234.058594 C 44.277344 233.878906 43.234375 233.5625 42.355469 232.984375 C 42.023438 232.753906 41.132812 232.273438 40.371094 231.890625 C 38.234375 230.816406 35.074219 228.566406 33.1875 226.777344 C 32.640625 226.246094 31.78125 225.519531 31.265625 225.140625 C 29.644531 223.929688 26.285156 220.125 25.339844 218.453125 C 25.042969 217.90625 24.28125 216.914062 23.667969 216.265625 C 23.058594 215.621094 22.164062 214.496094 21.683594 213.769531 C 21.203125 213.054688 20.523438 212.164062 20.191406 211.78125 C 19.367188 210.855469 18.273438 209.082031 18.074219 208.339844 C 17.976562 208.007812 17.644531 207.363281 17.328125 206.933594 C 17.015625 206.5 16.417969 205.425781 16.003906 204.546875 C 15.59375 203.671875 15.0625 202.695312 14.847656 202.398438 C 14.617188 202.097656 14.316406 201.46875 14.183594 201.007812 C 14.050781 200.542969 13.769531 199.847656 13.589844 199.46875 C 13.027344 198.390625 12.25 196.171875 12.25 195.675781 C 12.25 195.429688 12.050781 194.335938 11.800781 193.242188 C 11.554688 192.152344 11.339844 190.546875 11.304688 189.683594 C 11.238281 188.3125 11.289062 187.980469 11.667969 186.988281 C 11.917969 186.292969 12.117188 185.347656 12.183594 184.585938 C 12.347656 182.003906 13.339844 177.800781 14.117188 176.328125 C 15.027344 174.589844 16.402344 172.519531 16.851562 172.191406 C 17.132812 171.972656 17.578125 171.34375 17.859375 170.78125 C 18.207031 170.054688 18.769531 169.324219 19.746094 168.367188 C 21.039062 167.074219 21.21875 166.960938 22.277344 166.675781 C 23.207031 166.445312 23.851562 166.394531 25.738281 166.460938 C 27.757812 166.527344 28.136719 166.59375 28.71875 166.925781 C 29.082031 167.140625 30.058594 167.539062 30.886719 167.804688 C 33.914062 168.828125 34.496094 169.175781 36.296875 171.03125 C 37.191406 171.957031 38.117188 173 38.335938 173.347656 C 38.566406 173.695312 39.011719 174.257812 39.328125 174.621094 C 39.722656 175.054688 40.007812 175.597656 40.171875 176.226562 C 40.304688 176.757812 40.699219 177.734375 41.066406 178.414062 C 41.414062 179.089844 41.710938 179.753906 41.710938 179.902344 C 41.710938 180.050781 41.910156 180.546875 42.175781 180.996094 C 42.621094 181.824219 42.621094 181.839844 42.621094 184.96875 L 42.605469 188.113281 L 42.007812 189.355469 C 41.675781 190.03125 41.296875 191.042969 41.148438 191.589844 C 40.933594 192.449219 40.765625 192.699219 39.855469 193.542969 C 38.152344 195.097656 37.160156 195.792969 36.316406 195.972656 C 35.371094 196.191406 34.972656 196.386719 34.394531 196.933594 C 33.964844 197.332031 33.929688 197.464844 33.929688 198.621094 C 33.929688 200.378906 34.015625 200.445312 36.347656 200.445312 C 39.0625 200.445312 40.15625 199.929688 42.871094 197.429688 C 44.640625 195.777344 45.105469 195.164062 45.453125 194.019531 C 45.582031 193.507812 45.949219 192.648438 46.230469 192.101562 L 46.757812 191.089844 L 46.757812 179.007812 L 46.3125 178.199219 C 46.046875 177.75 45.847656 177.269531 45.847656 177.136719 C 45.847656 176.988281 45.632812 176.492188 45.367188 176.03125 C 45.105469 175.566406 44.722656 174.640625 44.523438 173.960938 C 44.324219 173.296875 44.042969 172.554688 43.894531 172.320312 C 42.074219 169.476562 37.753906 165.007812 36.496094 164.691406 C 36.132812 164.59375 35.421875 164.34375 34.925781 164.128906 C 34.429688 163.914062 33.75 163.683594 33.433594 163.617188 C 33.121094 163.550781 32.34375 163.25 31.730469 162.9375 L 30.589844 162.375 L 25.441406 162.375 C 20.011719 162.375 19.53125 162.425781 18.109375 163.167969 C 17.164062 163.664062 14.847656 166.199219 14.050781 167.621094 C 13.855469 167.96875 13.40625 168.546875 13.074219 168.914062 C 12.546875 169.476562 11.769531 170.667969 9.816406 173.925781 C 9.601562 174.257812 9.433594 174.6875 9.433594 174.886719 C 9.433594 175.070312 9.21875 175.832031 8.9375 176.574219 C 8.671875 177.335938 8.441406 178.179688 8.441406 178.480469 C 8.441406 178.777344 8.359375 179.273438 8.257812 179.589844 C 8.160156 179.902344 8.027344 180.960938 7.945312 181.921875 C 7.84375 183.164062 7.695312 183.890625 7.464844 184.355469 C 7.132812 185 7.117188 185.316406 7.117188 189.304688 C 7.117188 192.546875 7.183594 193.855469 7.382812 194.734375 C 7.515625 195.378906 7.730469 196.554688 7.863281 197.382812 C 8.0625 198.773438 8.757812 200.941406 9.351562 202.097656 C 9.5 202.378906 9.75 203.042969 9.914062 203.570312 C 10.082031 204.101562 10.410156 204.796875 10.644531 205.09375 C 10.859375 205.410156 11.4375 206.433594 11.917969 207.394531 C 12.398438 208.355469 12.960938 209.363281 13.175781 209.644531 C 13.390625 209.929688 13.703125 210.539062 13.871094 210.988281 C 14.21875 211.898438 15.542969 213.917969 16.550781 215.09375 C 16.933594 215.523438 17.59375 216.417969 18.058594 217.09375 C 18.503906 217.773438 19.316406 218.78125 19.863281 219.363281 C 20.410156 219.941406 20.988281 220.769531 21.1875 221.199219 C 21.367188 221.628906 21.914062 222.40625 22.394531 222.921875 C 22.875 223.433594 23.585938 224.292969 23.984375 224.824219 C 25.058594 226.230469 30.652344 231.578125 32.277344 232.71875 C 35.503906 234.988281 36.066406 235.351562 37.40625 236.03125 C 38.183594 236.410156 39.226562 236.972656 39.722656 237.289062 C 40.699219 237.882812 42.96875 238.511719 44.128906 238.511719 C 44.492188 238.511719 45.402344 238.695312 46.148438 238.910156 C 46.875 239.140625 47.835938 239.355469 48.28125 239.421875 C 48.710938 239.472656 49.753906 239.621094 50.566406 239.753906 C 53.179688 240.152344 60.8125 240.167969 61.339844 239.753906 C 61.554688 239.589844 62.101562 239.523438 63.160156 239.507812 C 64.007812 239.507812 65.015625 239.390625 65.480469 239.257812 C 65.925781 239.125 66.820312 239.007812 67.449219 239.007812 C 68.09375 239.007812 69.367188 238.925781 70.296875 238.84375 C 71.71875 238.710938 72.117188 238.613281 72.910156 238.164062 C 73.621094 237.769531 74.152344 237.601562 75.246094 237.488281 C 76.007812 237.402344 77.132812 237.15625 77.710938 236.925781 C 78.457031 236.660156 79.152344 236.527344 79.914062 236.527344 C 80.523438 236.511719 81.351562 236.445312 81.765625 236.359375 C 82.179688 236.261719 83.191406 236.128906 84.015625 236.03125 C 84.863281 235.949219 85.9375 235.714844 86.417969 235.515625 C 86.945312 235.320312 87.972656 235.121094 88.882812 235.035156 C 91.613281 234.804688 93.667969 234.34375 95.421875 233.582031 C 96.382812 233.167969 96.929688 233.050781 98.683594 232.917969 C 100.171875 232.800781 101 232.636719 101.5625 232.390625 C 102.007812 232.207031 102.835938 231.976562 103.398438 231.890625 C 104.011719 231.808594 104.957031 231.496094 105.652344 231.164062 C 107.289062 230.371094 109.988281 229.308594 110.980469 229.0625 C 112.304688 228.746094 112.703125 228.566406 113.726562 227.820312 C 114.257812 227.421875 115.203125 226.84375 115.8125 226.53125 C 118.015625 225.421875 120.035156 223.847656 120.828125 222.625 C 121.09375 222.210938 121.574219 221.613281 121.921875 221.300781 C 122.535156 220.703125 123.609375 219.195312 124.601562 217.507812 C 124.902344 216.996094 125.429688 216.285156 125.777344 215.917969 C 127.234375 214.378906 128.128906 212.640625 128.375 210.789062 C 128.425781 210.324219 128.625 209.695312 128.789062 209.382812 C 128.957031 209.066406 129.566406 207.726562 130.164062 206.402344 C 131.125 204.265625 131.371094 203.488281 131.933594 200.824219 C 132 200.445312 132.214844 199.847656 132.398438 199.5 C 132.878906 198.539062 133.871094 195.925781 134.070312 195.113281 C 134.335938 193.957031 134.285156 188.921875 133.988281 187.78125 C 133.457031 185.730469 132.863281 184.105469 132.300781 183.195312 C 131.96875 182.667969 131.570312 181.738281 131.40625 181.128906 C 131.222656 180.515625 130.84375 179.605469 130.527344 179.089844 C 130.230469 178.59375 129.75 177.734375 129.46875 177.1875 C 129.003906 176.261719 127.699219 174.457031 126.160156 172.652344 C 125.828125 172.238281 125.28125 171.558594 124.96875 171.148438 C 124.652344 170.714844 123.792969 169.839844 123.0625 169.175781 C 121.257812 167.539062 119.769531 165.933594 119.089844 164.921875 C 118.792969 164.441406 118.261719 163.847656 117.914062 163.597656 C 116.589844 162.574219 115.996094 161.960938 115.085938 160.652344 C 114.574219 159.925781 113.613281 158.75 112.964844 158.070312 C 112.304688 157.390625 111.296875 156.199219 110.714844 155.4375 C 110.136719 154.675781 109.375 153.699219 109.042969 153.289062 C 108.695312 152.875 108.148438 152.113281 107.820312 151.617188 C 107.488281 151.117188 106.824219 150.292969 106.347656 149.792969 C 105.136719 148.519531 104.707031 147.792969 104.09375 146.003906 C 103.796875 145.144531 103.316406 144.101562 103.003906 143.6875 C 102.140625 142.496094 101.660156 141.46875 101.28125 140.078125 C 101.082031 139.367188 100.683594 138.339844 100.386719 137.792969 C 99.328125 135.875 97.789062 132.066406 97.65625 131.023438 C 97.574219 130.460938 97.457031 129.667969 97.390625 129.238281 C 97.257812 128.308594 97.40625 128.078125 98.367188 127.582031 C 98.730469 127.398438 99.378906 126.9375 99.792969 126.554688 C 100.207031 126.160156 100.964844 125.628906 101.445312 125.363281 C 102.636719 124.734375 104.195312 123.296875 104.90625 122.152344 C 105.21875 121.65625 105.667969 121.042969 105.898438 120.796875 C 106.113281 120.546875 106.378906 120.035156 106.476562 119.636719 C 106.59375 119.207031 106.675781 115.714844 106.710938 110.648438 L 106.777344 102.375 L 106.347656 101.117188 C 106.113281 100.421875 105.933594 99.675781 105.933594 99.460938 C 105.933594 99.246094 105.785156 98.832031 105.601562 98.566406 C 104.972656 97.625 104.128906 95.886719 104.011719 95.238281 C 103.8125 94.195312 102.339844 89.910156 102.007812 89.429688 C 101.726562 89.015625 101.496094 88.570312 100.320312 86.035156 C 100.105469 85.605469 99.660156 85.027344 99.3125 84.746094 C 98.714844 84.28125 98.601562 84.25 97.210938 84.25 C 95.800781 84.25 95.703125 84.265625 95.304688 84.695312 Z M 95.304688 84.695312 "/>
<path style=" stroke:none;fill-rule:nonzero;fill:rgb(0%,0%,0%);fill-opacity:1;" d="M 60.382812 161.664062 C 59.851562 162.292969 59.785156 163.019531 59.6875 168.746094 C 59.585938 174.339844 59.636719 175.484375 60.117188 178.511719 C 60.449219 180.679688 60.480469 183.675781 60.167969 185.132812 C 59.703125 187.300781 59.421875 188.210938 58.824219 189.519531 C 58.261719 190.746094 55.894531 194.039062 54.539062 195.476562 C 54.15625 195.890625 53.414062 196.851562 52.898438 197.628906 C 52.371094 198.40625 51.707031 199.382812 51.410156 199.816406 C 50.765625 200.707031 50.550781 201.917969 50.8125 202.925781 C 51.046875 203.804688 51.441406 203.984375 53.113281 203.96875 C 54.804688 203.953125 54.871094 203.902344 56.773438 201.007812 C 57.136719 200.460938 57.734375 199.765625 58.097656 199.46875 C 58.460938 199.167969 58.957031 198.558594 59.191406 198.078125 C 59.667969 197.167969 60.644531 195.757812 61.492188 194.800781 C 62.78125 193.34375 64.007812 190.398438 64.484375 187.597656 C 64.917969 185.050781 64.636719 175.566406 64.074219 173.511719 C 63.972656 173.148438 63.890625 171.164062 63.890625 168.914062 C 63.890625 164.226562 63.691406 161.894531 63.277344 161.578125 C 63.113281 161.464844 62.5 161.382812 61.820312 161.382812 C 60.894531 161.382812 60.578125 161.449219 60.382812 161.664062 Z M 60.382812 161.664062 "/>
<path style=" stroke:none;fill-rule:nonzero;fill:rgb(0%,0%,0%);fill-opacity:1;" d="M 160.253906 167.984375 C 159.230469 168.332031 158.300781 168.695312 158.1875 168.796875 C 158.085938 168.878906 157.804688 169.011719 157.574219 169.078125 C 157.160156 169.195312 155.339844 170.367188 153.601562 171.644531 C 153.105469 172.007812 152.359375 172.453125 151.964844 172.652344 C 150.671875 173.28125 148.339844 175.765625 147.492188 177.402344 C 147.296875 177.785156 146.683594 178.59375 146.136719 179.207031 C 145.0625 180.382812 144.695312 181.011719 144.28125 182.320312 C 143.554688 184.601562 143.304688 191.65625 143.886719 193.574219 C 144.714844 196.289062 145.589844 198.324219 146.898438 200.445312 C 148.554688 203.15625 149.214844 204.019531 150.175781 204.761719 C 150.605469 205.078125 151.183594 205.675781 151.464844 206.085938 C 151.746094 206.484375 152.246094 207.015625 152.542969 207.246094 C 152.855469 207.496094 153.351562 207.992188 153.652344 208.355469 C 153.949219 208.734375 154.527344 209.300781 154.976562 209.628906 C 155.652344 210.160156 155.984375 210.6875 155.636719 210.707031 C 155.554688 210.722656 155.175781 210.789062 154.761719 210.886719 C 154.347656 210.96875 152.558594 211.121094 150.789062 211.203125 C 148.238281 211.300781 147.210938 211.417969 145.90625 211.75 C 144.996094 211.980469 143.917969 212.210938 143.503906 212.277344 C 142.695312 212.394531 140.691406 213.253906 137.25 214.960938 C 134.203125 216.464844 134.167969 216.515625 134.105469 219.957031 C 134.039062 223.167969 134.152344 223.75 134.882812 224.195312 C 135.179688 224.378906 135.742188 224.808594 136.121094 225.140625 C 136.503906 225.46875 137.183594 225.882812 137.644531 226.050781 C 138.589844 226.414062 140.195312 227.457031 141.46875 228.53125 C 142.132812 229.078125 142.546875 229.292969 143.257812 229.425781 C 143.769531 229.523438 144.53125 229.742188 144.960938 229.9375 C 146.335938 230.535156 148.40625 230.632812 158.484375 230.632812 C 167.871094 230.632812 169.757812 230.550781 170.617188 230.089844 C 170.800781 229.988281 171.394531 229.90625 171.925781 229.90625 C 172.453125 229.90625 173.183594 229.824219 173.546875 229.722656 C 173.910156 229.625 174.539062 229.492188 174.953125 229.425781 C 175.367188 229.359375 175.863281 229.210938 176.0625 229.113281 C 176.261719 228.996094 176.742188 228.914062 177.136719 228.914062 C 177.585938 228.914062 178.230469 228.730469 178.894531 228.417969 C 179.472656 228.136719 180.152344 227.917969 180.382812 227.917969 C 180.632812 227.917969 181.34375 227.6875 181.988281 227.421875 C 182.617188 227.140625 183.296875 226.925781 183.496094 226.925781 C 183.691406 226.925781 184.125 226.8125 184.4375 226.679688 C 184.769531 226.546875 185.414062 226.429688 185.863281 226.429688 C 186.308594 226.429688 186.886719 226.347656 187.152344 226.230469 C 187.402344 226.132812 188.078125 226 188.640625 225.933594 C 190.113281 225.769531 190.179688 225.667969 190.179688 223.949219 C 190.179688 221.910156 190.199219 221.910156 187.167969 222.011719 C 183.328125 222.144531 182.039062 222.339844 180.019531 223.101562 C 179.027344 223.46875 178.050781 223.78125 177.851562 223.78125 C 177.667969 223.78125 177.074219 223.996094 176.527344 224.277344 C 175.863281 224.609375 175.285156 224.757812 174.753906 224.773438 C 174.324219 224.773438 173.644531 224.875 173.265625 225.007812 C 171.609375 225.554688 170.632812 225.769531 169.871094 225.769531 C 169.410156 225.769531 168.679688 225.882812 168.234375 226.015625 C 167.785156 226.148438 167.191406 226.265625 166.910156 226.265625 C 166.628906 226.265625 166.066406 226.378906 165.683594 226.511719 C 165.105469 226.710938 163.878906 226.761719 158.832031 226.761719 C 155.421875 226.746094 152.359375 226.679688 151.945312 226.578125 C 151.53125 226.496094 150.488281 226.3125 149.628906 226.199219 C 148.769531 226.082031 147.757812 225.851562 147.394531 225.683594 C 147.03125 225.519531 146.386719 225.304688 145.972656 225.1875 C 145.507812 225.054688 144.347656 224.410156 143.15625 223.582031 C 142.03125 222.804688 140.707031 221.960938 140.210938 221.695312 C 139.300781 221.199219 138.621094 220.40625 138.835938 220.042969 C 138.953125 219.824219 141.832031 218.269531 142.480469 218.070312 C 142.695312 218.003906 143.304688 217.707031 143.835938 217.394531 C 144.5 216.996094 145.144531 216.765625 145.921875 216.648438 C 146.550781 216.546875 147.625 216.300781 148.304688 216.085938 C 149.316406 215.769531 150.191406 215.671875 153.023438 215.523438 C 154.941406 215.421875 156.796875 215.273438 157.160156 215.175781 C 157.523438 215.09375 158.203125 215.007812 158.648438 215.007812 C 159.113281 215.007812 159.925781 214.894531 160.4375 214.761719 C 160.96875 214.628906 161.679688 214.511719 162.027344 214.511719 C 162.375 214.511719 163.019531 214.398438 163.464844 214.265625 C 163.914062 214.132812 164.460938 214.015625 164.691406 214.015625 C 164.921875 214.015625 165.289062 213.898438 165.484375 213.75 C 165.816406 213.519531 165.851562 213.355469 165.851562 212.0625 L 165.851562 210.605469 L 165.070312 209.84375 C 164.359375 209.148438 161.992188 207.890625 161.398438 207.890625 C 161.296875 207.890625 160.902344 207.609375 160.503906 207.246094 C 160.125 206.898438 159.445312 206.433594 159.015625 206.238281 C 158.433594 205.957031 157.589844 205.195312 155.917969 203.441406 C 153.003906 200.359375 152.246094 199.433594 151.597656 198.210938 C 151.316406 197.664062 150.902344 196.96875 150.671875 196.667969 C 150.011719 195.792969 148.519531 192.515625 148.15625 191.125 C 147.777344 189.71875 147.726562 188.988281 147.972656 188.261719 C 148.058594 187.996094 148.207031 187.183594 148.289062 186.441406 C 148.519531 184.503906 149 183.394531 150.125 182.121094 C 150.65625 181.523438 151.335938 180.582031 151.632812 180.035156 C 152.542969 178.3125 154.265625 176.90625 158.78125 174.191406 C 159.230469 173.925781 159.972656 173.480469 160.4375 173.183594 C 160.917969 172.902344 162.09375 172.40625 163.070312 172.074219 C 164.808594 171.496094 164.90625 171.476562 167.457031 171.476562 C 170.039062 171.476562 170.085938 171.476562 171.148438 171.992188 C 173.117188 172.917969 173.644531 173.496094 173.859375 175.003906 C 173.925781 175.449219 174.144531 175.980469 174.359375 176.226562 C 174.707031 176.625 174.835938 176.660156 176.03125 176.660156 C 177.898438 176.660156 177.933594 176.59375 177.933594 173.480469 L 177.933594 171.046875 L 177.171875 170.003906 C 176.675781 169.308594 176.210938 168.878906 175.8125 168.714844 C 175.484375 168.582031 174.65625 168.21875 173.992188 167.902344 L 172.800781 167.339844 L 162.125 167.339844 Z M 160.253906 167.984375 "/>
</g>
</svg>
