<?xml version="1.0" standalone="no"?>
<!DOCTYPE svg PUBLIC "-//W3C//DTD SVG 20010904//EN"
        "http://www.w3.org/TR/2001/REC-SVG-20010904/DTD/svg10.dtd">
<svg version="1.0" xmlns="http://www.w3.org/2000/svg"
     width="1510.000000pt" height="1510.000000pt" viewBox="0 0 1510.000000 1510.000000"
     preserveAspectRatio="xMidYMid meet">
    <metadata>
        Created by potrace 1.16, written by Peter Selinger 2001-2019
    </metadata>
    <g transform="translate(0.000000,1510.000000) scale(0.100000,-0.100000)"
       fill="#000000" stroke="none">
        <path d="M7620 14595 c-43 -8 -151 -14 -250 -15 -238 -1 -298 -10 -368 -53
-50 -31 -231 -97 -264 -97 -17 0 -123 -65 -176 -108 -24 -19 -71 -48 -105 -64
-34 -17 -90 -55 -124 -85 -42 -37 -81 -61 -122 -74 -63 -22 -84 -39 -226 -190
-38 -41 -90 -85 -115 -99 -35 -19 -51 -38 -72 -80 -15 -30 -47 -79 -71 -109
-42 -49 -45 -59 -52 -128 -7 -80 -3 -92 52 -150 63 -66 132 -95 195 -81 24 5
66 11 95 12 62 4 103 27 103 59 0 34 -28 67 -56 67 -22 0 -24 3 -24 54 0 67
12 81 85 96 60 12 89 39 100 91 4 18 24 44 51 66 24 20 52 55 63 77 25 54 39
65 224 188 143 96 162 106 217 112 43 5 73 16 107 39 27 18 93 54 148 81 55
26 129 62 164 80 56 27 80 32 180 39 247 16 336 18 434 7 56 -7 129 -15 162
-19 33 -4 71 -14 85 -23 14 -9 64 -27 112 -38 61 -16 107 -35 155 -66 37 -24
97 -59 133 -78 36 -20 99 -68 140 -107 41 -39 98 -82 125 -95 39 -19 65 -43
109 -99 31 -42 68 -83 82 -91 13 -9 40 -42 59 -74 19 -32 42 -64 51 -71 9 -8
25 -33 35 -57 11 -24 51 -86 90 -138 78 -105 89 -131 89 -222 0 -35 7 -95 16
-134 23 -101 16 -258 -14 -316 -13 -24 -27 -77 -33 -124 -5 -44 -19 -98 -30
-119 -10 -21 -26 -71 -33 -111 -8 -40 -22 -93 -31 -118 -9 -25 -25 -90 -36
-145 -24 -120 -55 -189 -109 -239 -22 -20 -50 -56 -61 -79 -38 -74 -79 -117
-157 -162 -42 -25 -83 -45 -91 -45 -7 0 -41 -14 -74 -31 -76 -38 -95 -35 -193
32 -65 45 -77 59 -105 118 -18 36 -44 100 -59 141 -35 96 -105 252 -137 308
-21 35 -27 63 -33 150 -6 70 -15 122 -28 152 -26 57 -55 190 -76 345 -28 198
-35 224 -70 262 -28 31 -38 35 -96 40 -154 12 -205 -74 -142 -239 11 -29 28
-107 37 -173 26 -190 55 -332 81 -396 18 -43 24 -78 24 -131 1 -96 15 -154 49
-203 35 -50 131 -255 131 -280 0 -11 22 -65 49 -121 55 -113 70 -128 254 -263
120 -89 147 -98 265 -88 58 4 86 15 212 80 184 95 269 143 299 170 13 12 50
63 84 112 33 50 84 115 113 146 55 58 57 63 94 229 12 52 30 122 40 155 11 33
24 90 29 126 5 36 19 85 30 107 13 25 25 75 30 124 4 46 16 99 26 118 31 59
30 298 -3 775 l-7 100 -70 104 c-39 57 -79 117 -89 135 -11 17 -36 51 -56 76
-20 25 -47 65 -60 90 -12 25 -50 72 -83 105 -34 34 -86 89 -115 123 -29 34
-74 76 -100 94 -26 17 -83 66 -127 107 -55 53 -94 81 -125 91 -25 8 -77 36
-117 62 -103 67 -118 74 -232 103 -56 14 -123 34 -149 44 -103 41 -406 61
-542 36z"/>
        <path d="M4105 13463 c-24 -3 -51 -15 -72 -34 l-34 -29 -160 0 -160 0 -59 -40
c-49 -34 -61 -47 -71 -83 -6 -23 -9 -69 -6 -102 5 -61 56 -254 78 -297 6 -13
43 -55 83 -93 86 -86 144 -168 209 -297 39 -78 59 -105 96 -132 101 -76 168
-128 206 -160 46 -38 172 -104 272 -141 36 -14 88 -39 114 -55 26 -16 89 -42
141 -58 51 -16 111 -38 133 -49 22 -12 60 -24 85 -28 25 -4 79 -15 120 -25 68
-17 139 -19 717 -22 l642 -3 23 23 c19 19 22 33 22 96 0 104 -8 111 -132 120
-53 4 -304 9 -557 12 l-460 5 -120 30 c-66 16 -127 29 -136 29 -8 0 -32 9 -53
20 -22 10 -82 34 -135 51 -53 18 -112 42 -131 54 -20 13 -79 40 -130 62 -118
49 -308 173 -375 244 -59 63 -135 184 -135 216 0 14 15 34 40 54 54 44 69 69
85 146 16 77 29 93 112 139 l62 35 243 -6 c631 -14 918 -16 957 -5 31 8 41 17
50 42 15 41 14 59 -4 94 -37 75 -119 114 -238 114 -65 0 -89 4 -115 20 -38 24
-70 25 -340 15 -129 -5 -196 -4 -230 5 -99 25 -517 47 -637 33z"/>
        <path d="M9137 10970 c-39 -31 -50 -79 -45 -200 5 -129 7 -133 173 -356 65
-88 148 -199 185 -249 101 -137 163 -223 212 -295 23 -36 77 -108 119 -160 42
-52 103 -135 135 -185 32 -49 115 -151 184 -225 165 -178 172 -188 280 -380
99 -179 122 -211 275 -400 56 -69 141 -179 190 -245 49 -66 116 -154 150 -195
34 -41 77 -97 95 -125 19 -27 120 -158 225 -290 106 -132 208 -265 227 -295
19 -30 73 -100 119 -155 156 -185 218 -289 308 -513 50 -126 108 -241 160
-322 22 -34 49 -86 60 -116 12 -29 38 -89 60 -131 52 -104 131 -279 198 -438
97 -230 110 -260 133 -305 36 -70 59 -145 91 -295 52 -242 57 -277 69 -420 6
-77 15 -167 20 -200 25 -145 24 -256 -4 -452 -53 -379 -63 -410 -192 -603
-204 -305 -170 -269 -489 -515 -64 -49 -155 -122 -201 -162 -47 -39 -104 -80
-127 -91 -23 -11 -62 -38 -87 -59 -25 -22 -74 -55 -110 -74 -36 -19 -89 -57
-117 -85 l-53 -50 0 -71 c0 -79 17 -111 69 -133 40 -16 70 -8 120 34 22 19 77
55 122 81 150 86 563 367 671 457 59 48 145 114 190 147 46 32 105 77 133 100
64 53 84 58 237 64 118 5 134 8 205 40 43 19 89 38 103 42 14 4 68 26 120 50
65 29 115 44 159 49 45 4 88 18 146 46 45 22 85 40 88 40 14 0 204 94 226 112
14 10 38 40 55 66 21 32 46 54 77 69 25 11 57 35 72 52 23 28 105 96 171 143
32 23 215 298 245 368 13 30 32 70 44 89 11 18 24 53 28 78 5 24 18 58 30 75
18 25 23 52 31 162 19 280 21 456 3 551 -9 50 -20 122 -26 160 -35 259 -77
412 -157 570 -11 22 -23 68 -27 103 -8 76 -26 129 -66 196 -18 28 -46 84 -63
126 -29 69 -47 90 -196 245 -91 94 -200 205 -242 248 l-78 77 -99 0 c-125 0
-134 -7 -135 -113 -1 -83 15 -114 82 -161 22 -15 53 -46 69 -69 17 -23 92
-105 167 -182 127 -132 140 -148 204 -270 84 -158 82 -154 92 -236 5 -43 22
-97 50 -160 55 -122 94 -250 114 -374 9 -55 25 -140 34 -190 13 -69 16 -133
14 -273 -2 -170 -4 -187 -26 -230 -13 -26 -27 -67 -31 -91 -9 -52 -69 -184
-102 -225 -13 -16 -35 -51 -49 -78 -32 -62 -103 -151 -160 -197 -23 -20 -67
-57 -97 -84 -30 -26 -87 -63 -126 -82 -43 -21 -99 -61 -144 -102 -59 -54 -87
-73 -143 -92 -38 -13 -86 -32 -107 -43 -21 -10 -76 -30 -122 -43 -46 -14 -128
-44 -182 -68 -121 -55 -199 -81 -218 -73 -21 8 -19 46 6 108 13 33 24 93 30
158 4 58 17 175 29 260 40 311 49 500 34 687 -8 92 -23 220 -35 283 -30 174
-96 414 -141 515 -22 50 -54 131 -72 180 -18 50 -47 118 -65 153 -18 35 -87
202 -155 370 -68 169 -148 364 -179 434 -31 69 -75 179 -97 244 -46 133 -154
330 -259 472 -35 48 -80 112 -99 142 -103 160 -258 370 -361 489 -64 73 -148
174 -186 225 -39 50 -103 131 -143 179 -39 48 -86 109 -104 135 -17 26 -62 85
-98 132 -68 86 -317 463 -445 676 -132 217 -190 299 -285 399 -53 55 -131 144
-173 198 -43 53 -104 127 -137 162 -32 36 -83 100 -113 143 -30 42 -93 123
-140 179 -147 175 -369 492 -411 586 -33 75 -64 97 -136 97 -42 0 -64 -5 -83
-20z"/>
        <path d="M5758 9983 c-24 -27 -65 -97 -115 -196 -25 -50 -123 -153 -275 -290
-114 -102 -129 -109 -180 -91 -22 8 -52 14 -67 14 -15 0 -53 13 -86 30 -33 16
-65 30 -70 30 -6 0 -26 11 -45 23 -79 54 -116 59 -407 54 -147 -2 -291 -9
-319 -15 -50 -10 -147 -67 -204 -118 -40 -36 -157 -78 -220 -78 -78 0 -178 22
-211 45 -15 10 -42 22 -61 25 -54 11 -179 74 -233 119 -27 23 -70 55 -95 72
-25 17 -63 50 -84 74 -43 50 -146 208 -146 226 0 29 -44 43 -130 43 -77 0 -89
-2 -108 -23 -12 -13 -24 -38 -28 -57 -3 -19 -17 -61 -31 -93 -14 -34 -28 -90
-32 -132 -5 -55 -13 -83 -30 -106 -23 -31 -23 -32 -16 -238 10 -320 7 -404
-20 -491 -13 -41 -27 -95 -31 -120 -3 -24 -16 -65 -28 -90 -19 -41 -21 -60
-19 -237 1 -178 3 -195 22 -222 29 -40 92 -179 153 -336 28 -71 62 -145 76
-163 13 -18 35 -61 48 -95 14 -35 41 -79 64 -102 21 -22 44 -53 50 -70 20 -53
92 -151 129 -175 20 -13 50 -36 66 -51 17 -14 69 -51 116 -82 47 -31 92 -63
99 -72 8 -9 47 -39 87 -66 115 -77 197 -85 261 -26 39 37 55 90 44 143 -6 31
-18 46 -57 74 -27 19 -74 58 -104 86 -31 29 -92 76 -137 105 -161 107 -228
173 -253 249 -6 19 -33 59 -61 88 -32 35 -52 65 -56 89 -4 20 -22 53 -41 74
-23 25 -46 70 -69 136 -19 54 -49 130 -68 169 -52 110 -62 162 -48 245 7 38
12 106 12 152 0 48 7 100 16 127 13 37 15 98 14 375 -2 315 -2 332 18 375 27
58 30 62 55 48 28 -15 143 -103 187 -144 55 -50 181 -121 230 -129 25 -4 65
-18 90 -30 25 -12 65 -26 90 -30 25 -4 63 -17 85 -28 48 -25 112 -35 265 -43
115 -6 116 -6 178 25 39 20 70 44 84 66 30 44 207 131 288 141 30 4 73 17 96
30 22 13 55 24 72 24 40 0 148 -37 186 -63 19 -13 53 -22 98 -27 64 -5 73 -9
99 -40 16 -19 29 -38 29 -42 0 -3 17 -17 38 -29 20 -13 55 -38 76 -56 37 -31
44 -33 114 -33 l75 0 65 58 c35 31 92 78 126 103 33 26 82 69 108 97 26 28 69
66 96 84 49 33 104 90 135 140 9 15 26 32 37 38 18 9 25 7 46 -18 34 -38 112
-236 129 -327 19 -96 49 -175 86 -221 16 -20 32 -49 35 -63 3 -14 18 -60 34
-102 l30 -75 0 -311 c0 -282 -2 -315 -20 -367 -35 -103 -144 -230 -257 -300
-43 -27 -91 -61 -108 -76 -16 -16 -50 -38 -75 -50 -70 -34 -98 -67 -120 -138
-31 -101 -27 -318 10 -505 5 -26 51 -139 100 -250 50 -111 109 -252 130 -312
48 -136 209 -449 262 -510 22 -25 56 -74 76 -109 51 -88 153 -220 218 -279 30
-27 73 -75 95 -107 22 -32 58 -72 79 -89 22 -17 60 -62 86 -99 26 -37 96 -116
154 -177 59 -60 114 -123 123 -140 8 -16 87 -100 174 -186 187 -184 254 -259
316 -354 26 -38 57 -83 71 -100 31 -38 141 -251 150 -290 4 -16 31 -79 61
-140 34 -69 64 -149 81 -215 24 -96 25 -110 14 -170 -6 -35 -35 -123 -64 -195
-29 -71 -65 -179 -79 -240 -28 -116 -69 -222 -142 -367 -31 -61 -47 -108 -53
-156 -13 -93 -33 -128 -213 -374 -35 -49 -82 -116 -103 -150 -58 -90 -132
-176 -184 -212 -25 -17 -63 -46 -85 -64 -23 -19 -61 -44 -87 -57 -25 -13 -72
-43 -105 -68 -44 -32 -82 -51 -140 -66 -94 -26 -176 -57 -306 -117 -52 -24
-122 -49 -155 -54 -32 -6 -93 -22 -134 -35 -50 -16 -110 -25 -181 -29 -80 -3
-125 -11 -180 -31 -167 -60 -236 -76 -349 -85 -78 -6 -138 -17 -187 -35 -42
-14 -95 -25 -125 -25 -29 0 -71 -5 -93 -10 -22 -6 -94 -15 -161 -20 -80 -6
-139 -16 -173 -30 -29 -11 -87 -25 -128 -31 -46 -6 -107 -24 -157 -47 -65 -29
-96 -37 -161 -40 -59 -3 -83 -9 -91 -21 -11 -14 -58 -17 -421 -21 -432 -6
-516 0 -649 39 -38 12 -107 25 -154 30 -95 11 -158 30 -211 65 -20 14 -74 43
-120 66 -129 65 -320 201 -434 309 -33 32 -85 76 -116 99 -98 73 -301 303
-358 404 -18 33 -64 93 -101 132 -37 39 -91 107 -120 151 -29 43 -70 97 -90
120 -50 56 -116 163 -128 208 -6 20 -26 59 -45 85 -19 26 -55 91 -80 144 -25
53 -57 112 -70 130 -14 18 -32 56 -40 84 -8 28 -25 70 -36 93 -34 65 -81 199
-81 229 0 15 -12 81 -27 147 -15 66 -28 163 -30 215 -4 83 -1 103 22 163 15
42 27 99 31 145 10 156 70 410 117 499 55 105 138 230 165 250 17 13 44 51 61
85 21 44 55 88 114 146 78 78 89 85 153 102 56 14 95 17 209 13 122 -4 145 -8
180 -28 22 -13 81 -37 131 -53 183 -62 218 -83 327 -195 54 -56 110 -119 123
-140 14 -21 41 -55 60 -77 24 -26 41 -59 51 -97 8 -32 32 -91 54 -132 21 -41
39 -81 39 -90 0 -9 12 -39 28 -66 27 -50 27 -51 27 -240 l-1 -190 -36 -75
c-20 -41 -43 -102 -52 -135 -13 -52 -23 -67 -78 -118 -103 -94 -163 -136 -214
-147 -57 -13 -81 -25 -116 -58 -26 -24 -28 -32 -28 -102 0 -106 5 -110 146
-110 164 0 230 31 394 182 107 100 135 137 156 206 8 31 30 83 47 116 l32 61
0 365 0 365 -27 49 c-16 27 -28 56 -28 64 0 9 -13 39 -29 67 -16 28 -39 84
-51 125 -12 40 -29 85 -38 99 -110 172 -371 442 -447 461 -22 6 -65 21 -95 34
-30 13 -71 27 -90 31 -19 4 -66 22 -103 41 l-69 34 -311 0 c-328 0 -357 -3
-443 -48 -57 -30 -197 -183 -245 -269 -12 -21 -39 -56 -59 -78 -32 -34 -79
-106 -197 -303 -13 -20 -23 -46 -23 -58 0 -11 -13 -57 -30 -102 -16 -46 -30
-97 -30 -115 0 -18 -5 -48 -11 -67 -6 -19 -14 -83 -19 -141 -6 -75 -15 -119
-29 -147 -20 -39 -21 -58 -21 -299 0 -196 4 -275 16 -328 8 -39 21 -110 29
-160 12 -84 54 -215 90 -285 9 -17 24 -57 34 -89 10 -32 30 -74 44 -92 13 -19
48 -81 77 -139 29 -58 63 -119 76 -136 13 -17 32 -54 42 -81 21 -55 101 -177
162 -248 23 -26 63 -80 91 -121 27 -41 76 -102 109 -137 33 -35 68 -85 80
-111 11 -26 44 -73 73 -104 29 -31 72 -83 96 -115 65 -85 403 -408 501 -477
195 -137 229 -159 310 -200 47 -23 110 -57 140 -76 59 -36 196 -74 266 -74 22
0 77 -11 122 -24 44 -14 102 -27 129 -31 26 -3 89 -12 138 -20 158 -24 619
-25 651 0 13 10 46 14 110 15 51 0 112 7 140 15 27 8 81 15 119 15 39 0 116 5
172 10 86 8 110 14 158 41 43 24 75 34 141 41 46 5 114 20 149 34 45 16 87 24
133 24 37 1 87 5 112 10 25 6 86 14 136 20 51 5 116 19 145 31 32 12 94 24
149 29 165 14 289 42 395 88 58 25 91 32 197 40 90 7 140 17 174 32 27 11 77
25 111 30 37 5 94 24 136 44 99 48 262 112 322 127 80 19 104 30 166 75 32 24
89 59 126 78 133 67 255 162 303 236 16 25 45 61 66 80 37 36 102 127 162 229
18 31 50 74 71 96 88 93 142 198 157 310 3 28 15 66 25 85 10 19 47 100 83
180 58 129 73 176 107 337 4 23 17 59 28 80 29 58 89 216 101 265 16 70 13
374 -5 443 -32 124 -68 222 -102 277 -20 32 -44 88 -54 125 -11 37 -34 92 -53
123 -18 30 -47 82 -64 115 -28 56 -107 165 -200 274 -20 25 -53 66 -72 91 -19
26 -71 79 -115 119 -109 99 -199 196 -240 257 -18 29 -50 65 -71 80 -80 62
-116 99 -171 178 -31 44 -89 115 -128 156 -40 41 -101 113 -136 159 -35 46
-81 105 -101 130 -21 25 -54 71 -74 101 -20 30 -60 80 -89 110 -73 77 -99 121
-136 229 -18 52 -47 115 -66 140 -52 72 -81 134 -104 218 -12 43 -36 105 -54
138 -64 116 -157 346 -165 409 -5 34 -12 82 -16 108 -8 56 1 70 59 100 22 11
61 39 86 62 25 24 71 56 100 72 72 38 166 125 209 194 19 30 46 67 60 82 13
15 29 46 35 70 7 26 12 237 14 543 l4 500 -26 76 c-14 42 -25 87 -25 100 0 13
-9 38 -20 54 -38 57 -89 162 -96 201 -12 63 -101 322 -121 351 -17 25 -31 52
-102 205 -13 26 -40 61 -61 78 -36 28 -43 30 -127 30 -85 0 -91 -1 -115 -27z"/>
        <path d="M3648 5333 c-32 -38 -36 -82 -42 -428 -6 -338 -3 -407 26 -590 20
-131 22 -312 3 -400 -28 -131 -45 -186 -81 -265 -34 -74 -177 -273 -259 -360
-23 -25 -68 -83 -99 -130 -32 -47 -72 -106 -90 -132 -39 -54 -52 -127 -36
-188 14 -53 38 -64 139 -63 102 1 106 4 221 179 22 33 58 75 80 93 22 18 52
55 66 84 29 55 88 140 139 198 78 88 152 266 181 435 26 154 9 727 -25 851 -6
22 -11 142 -11 278 0 283 -12 424 -37 443 -10 7 -47 12 -88 12 -56 0 -75 -4
-87 -17z"/>
        <path d="M9682 4951 c-62 -21 -118 -43 -125 -49 -6 -5 -23 -13 -37 -17 -25 -7
-135 -78 -240 -155 -30 -22 -75 -49 -99 -61 -78 -38 -219 -188 -270 -287 -12
-23 -49 -72 -82 -109 -65 -71 -87 -109 -112 -188 -44 -138 -59 -564 -24 -680
50 -164 103 -287 182 -415 100 -164 140 -216 198 -261 26 -19 61 -55 78 -80
17 -24 47 -56 65 -70 19 -15 49 -45 67 -67 18 -23 53 -57 80 -77 41 -32 61
-64 40 -65 -5 -1 -28 -5 -53 -11 -25 -5 -133 -14 -240 -19 -154 -6 -216 -13
-295 -33 -55 -14 -120 -28 -145 -32 -49 -7 -170 -59 -378 -162 -184 -91 -186
-94 -190 -302 -4 -194 3 -229 47 -256 18 -11 52 -37 75 -57 23 -20 64 -45 92
-55 57 -22 154 -85 231 -150 40 -33 65 -46 108 -54 31 -6 77 -19 103 -31 83
-36 208 -42 817 -42 567 0 681 5 733 33 11 6 47 11 79 11 32 0 76 5 98 11 22
6 60 14 85 18 25 4 55 13 67 19 12 7 41 12 65 12 27 0 66 11 106 30 35 17 76
30 90 30 15 0 58 14 97 30 38 17 79 30 91 30 12 0 38 7 57 15 20 8 59 15 86
15 27 0 62 5 78 12 15 6 56 14 90 18 89 10 93 16 93 120 0 123 1 123 -182 117
-232 -8 -310 -20 -432 -66 -60 -22 -119 -41 -131 -41 -11 0 -47 -13 -80 -30
-40 -20 -75 -29 -107 -30 -26 0 -67 -6 -90 -14 -100 -33 -159 -46 -205 -46
-28 0 -72 -7 -99 -15 -27 -8 -63 -15 -80 -15 -17 0 -51 -7 -74 -15 -35 -12
-109 -15 -414 -15 -206 1 -391 5 -416 11 -25 5 -88 16 -140 23 -52 7 -113 21
-135 31 -22 10 -61 23 -86 30 -28 8 -98 47 -170 97 -68 47 -148 98 -178 114
-55 30 -96 78 -83 100 7 13 181 107 220 119 13 4 50 22 82 41 40 24 79 38 126
45 38 6 103 21 144 34 61 19 114 25 285 34 116 6 228 15 250 21 22 5 63 10 90
10 28 0 77 7 108 15 32 8 75 15 96 15 21 0 60 7 87 15 27 8 60 15 74 15 14 0
36 7 48 16 20 14 22 24 22 102 l0 88 -47 46 c-43 42 -186 118 -222 118 -6 0
-30 17 -54 39 -23 21 -64 49 -90 61 -35 17 -86 63 -187 169 -176 186 -222 242
-261 316 -17 33 -42 75 -56 93 -40 53 -130 251 -152 335 -23 85 -26 129 -11
173 5 16 14 65 19 110 14 117 43 184 111 261 32 36 73 93 91 126 55 104 159
189 432 353 27 16 72 43 100 61 29 17 100 47 159 67 105 35 111 36 265 36 156
0 159 0 223 -31 119 -56 151 -91 164 -182 4 -27 17 -59 30 -74 21 -24 29 -26
101 -26 113 0 115 4 115 192 l0 147 -46 63 c-30 42 -58 68 -82 78 -20 8 -70
30 -110 49 l-72 34 -323 0 -322 0 -113 -39z"/>
    </g>
</svg>
